PathFileType	4	(X/Y/Z)	C:/Users/opensim2020/Desktop/walking_exp_matlab/subject01_walking12_straight_01.trc																																																																																																																																		
DataRate	CameraRate	NumFrames	NumMarkers	Units	OrigDataRate	OrigDataStartFrame	OrigNumFrames																																																																																																																														
100	100	4	44	mm	100	643	193																																																																																																																														
Frame#	Time	LFHD			RFHD			LBHD			RBHD			C7			T10			CLAV			STRN			RBAK			LSHO			LUPA			LELB			LFRM			LWRA			LWRB			LFIN			RSHO			RUPA			RELB			RFRM			RWRA			RWRB			RFIN			LASI			RASI			LPSI			RPSI			LTHI			LKNE			LTIB			LANK			LHEE			LTOE			RTHI			RKNE			RTIB			RANK			RHEE			RTOE			*39			*40			*41			*42			*43		
		X1	Y1	Z1	X2	Y2	Z2	X3	Y3	Z3	X4	Y4	Z4	X5	Y5	Z5	X6	Y6	Z6	X7	Y7	Z7	X8	Y8	Z8	X9	Y9	Z9	X10	Y10	Z10	X11	Y11	Z11	X12	Y12	Z12	X13	Y13	Z13	X14	Y14	Z14	X15	Y15	Z15	X16	Y16	Z16	X17	Y17	Z17	X18	Y18	Z18	X19	Y19	Z19	X20	Y20	Z20	X21	Y21	Z21	X22	Y22	Z22	X23	Y23	Z23	X24	Y24	Z24	X25	Y25	Z25	X26	Y26	Z26	X27	Y27	Z27	X28	Y28	Z28	X29	Y29	Z29	X30	Y30	Z30	X31	Y31	Z31	X32	Y32	Z32	X33	Y33	Z33	X34	Y34	Z34	X35	Y35	Z35	X36	Y36	Z36	X37	Y37	Z37	X38	Y38	Z38	X39	Y39	Z39	X40	Y40	Z40	X41	Y41	Z41	X42	Y42	Z42	X43	Y43	Z43	X44	Y44	Z44
																																																																																																																																					
25	0.24	-799.80872	1679.25037	-1062.9657	-793.409	1681.85876	-949.52551	-906.13403	1613.32983	-1064.22485	-901.90527	1613.61401	-943.76227	-918.27295	1432.98364	-1023.46204	-960.68433	1141.55933	-1011.8877	-775.09894	1361.90234	-1021.15375	-736.9859	1204.81287	-1026.14758	-976.54364	1240.52832	-943.90009	-837.44873	1391.18262	-1181.47534	-866.61682	1207.54456	-1264.36011	-870.35614	1054.32935	-1267.25232	-811.09546	956.41846	-1295.17102	-706.6507	864.49646	-1284.56152	-760.16864	845.07208	-1304.05884	-697.32135	790.5022	-1317.98462	-837.72034	1390.73486	-869.52496	-902.59521	1193.45032	-767.00934	-910.4939	1068.85205	-766.23486	-892.14917	948.62958	-742.13226	-830.29352	824.12891	-776.14148	-866.7793	828.99127	-730.11279	-838.8291	748.82764	-737.55353	-798.85168	924.08966	-1120.17041	-794.7204	929.90363	-904.0625	-983.21985	945.46777	-1066.21704	-979.65997	952.1535	-920.6554	-802.73975	594.28125	-1185.28564	-804.93903	461.41205	-1178.10425	-954.61865	355.09409	-1188.11169	-1128.98743	225.12668	-1139.61804	-1174.63159	238.59955	-1082.36633	-1084.41162	83.72315	-1148.95056	-833.49237	599.33997	-853.5697	-810.95129	443.10611	-885.36237	-858.12286	272.46753	-882.48669	-880.26074	70.06966	-934.87988	-929.87	31.21901	-984.3891	-739.83026	32.57525	-936.81073	-810.5246	1713.63562	-970.81519	1973.12817	1023.47534	-3101.90454	2012.47083	1022.00439	-3140.75049	NaN	NaN	NaN	NaN	NaN	NaN
26	0.25	-790.64508	1679.53845	-1063.22314	-783.87823	1682.29126	-949.86017	-897.47339	1614.39063	-1063.83972	-892.72662	1614.92383	-943.41223	-910.47809	1433.46606	-1022.88409	-952.62976	1141.95996	-1011.29181	-767.27722	1362.40613	-1020.4281	-729.06366	1205.43115	-1025.47107	-968.46686	1241.06555	-943.06537	-829.79871	1391.70569	-1181.03381	-859.53363	1207.68835	-1263.24829	-864.69757	1054.52234	-1264.69849	-807.63666	955.34357	-1292.76123	-704.98389	861.40082	-1282.93518	-759.16101	843.07019	-1301.69019	-697.6701	786.93518	-1315.99683	-830.11005	1391.59204	-869.10394	-892.09015	1193.89294	-765.84973	-898.52094	1069.0686	-764.65112	-878.15533	949.16284	-740.84235	-814.90814	825.61005	-775.68536	-850.72125	829.85132	-729.20862	-821.44312	750.3335	-736.90234	-790.4743	925.02362	-1119.13562	-787.24744	930.08203	-903.01648	-974.73273	946.35223	-1066.90039	-972.10065	952.5882	-921.28479	-786.99005	596.45294	-1184.72937	-786.1214	463.66071	-1176.99133	-934.79755	356.07397	-1186.87048	-1108.58179	224.82832	-1138.02759	-1154.80994	237.06502	-1080.7627	-1059.87988	84.80415	-1148.39111	-828.68512	598.97504	-853.67163	-807.94122	442.65698	-885.56042	-856.31781	272.62088	-882.74225	-879.52954	69.93126	-935.14667	-929.75317	31.32286	-984.51501	-739.69751	32.57547	-936.85895	-800.78082	1714.14758	-971.06531	1973.13464	1023.76434	-3101.89038	2012.47302	1022.05054	-3140.75122	NaN	NaN	NaN	NaN	NaN	NaN
27	0.26	-781.51135	1679.60815	-1063.38599	-774.12097	1682.76831	-950.13013	-888.74127	1615.42822	-1063.56787	-883.50098	1616.18457	-943.18378	-902.65588	1433.88904	-1022.43262	-944.60504	1142.29932	-1010.78357	-759.50879	1362.99548	-1020.0119	-721.06964	1206.01025	-1024.75586	-960.46246	1241.53638	-942.28601	-822.12732	1392.18652	-1180.70557	-852.40967	1207.77356	-1262.25562	-859.0116	1054.71008	-1262.1571	-804.57922	954.50531	-1290.51758	-703.45502	858.38611	-1281.43054	-758.30823	841.0332	-1299.25146	-698.38324	783.51324	-1314.14172	-822.17719	1392.29028	-868.7688	-881.54266	1194.30005	-764.64709	-886.65161	1069.33386	-763.14288	-864.05389	949.58374	-739.64166	-799.26978	827.13263	-775.15649	-835.20966	830.98755	-728.23071	-803.75476	751.71039	-736.29761	-781.78748	926.06549	-1118.28479	-779.78229	930.17493	-902.01477	-965.81561	947.22058	-1067.47461	-964.42395	953.03687	-921.95654	-771.59253	598.85242	-1184.27368	-767.98322	466.17206	-1175.97278	-915.36987	356.97165	-1185.49548	-1087.4187	223.72498	-1136.72192	-1134.30994	234.47832	-1079.34387	-1034.80603	86.04005	-1148.33923	-824.71466	598.85596	-853.86115	-804.30322	442.0773	-885.67426	-854.19183	272.49747	-882.87482	-879.24329	70.12704	-935.3855	-930.20984	32.35709	-984.28583	-739.61322	32.56172	-936.93463	-790.59259	1714.72314	-971.43329	1973.16699	1023.61658	-3101.58887	2012.55164	1022.20538	-3140.7688	NaN	NaN	NaN	NaN	NaN	NaN
28	0.27	-772.19635	1679.8949	-1063.94141	-764.38788	1683.12585	-950.61719	-879.99963	1616.41968	-1063.42212	-874.25665	1617.41785	-943.05109	-895.15759	1434.31067	-1022.11353	-936.58093	1142.57263	-1010.2605	-751.63751	1363.54907	-1020.12378	-713.05292	1206.57996	-1024.18152	-952.34772	1241.90588	-941.58923	-814.41772	1392.54895	-1180.50647	-845.2511	1207.81494	-1261.30164	-853.35834	1054.91785	-1259.64893	-801.35901	953.5509	-1288.16248	-702.01257	855.41919	-1280.1687	-757.77942	839.27179	-1297.10718	-698.98535	779.96643	-1312.01611	-813.73077	1392.82983	-868.70441	-871.1604	1194.73169	-763.68927	-874.73987	1069.53931	-761.75775	-849.97864	950.14252	-738.47559	-783.5249	828.81635	-774.56403	-818.69824	831.95624	-727.31311	-786.29468	753.45404	-735.49597	-773.27325	927.03143	-1117.34631	-772.20294	930.26752	-901.04181	-957.64093	948.04004	-1068.40161	-957.60602	953.97455	-922.50964	-756.42596	601.41992	-1183.83594	-750.30963	468.9574	-1175.00903	-896.17365	357.6564	-1184.20154	-1065.80762	221.5766	-1135.57556	-1113.19507	230.47661	-1078.03064	-1008.51379	85.78987	-1148.06213	-819.85852	598.36627	-854.09528	-801.57776	441.64801	-885.89868	-852.65955	272.35907	-883.27509	-879.27332	70.39932	-935.62927	-930.15375	32.53326	-984.42987	-739.45306	32.54378	-937.03601	-780.87891	1715.36462	-971.73853	1972.84119	1024.04565	-3102.7356	2012.51355	1022.19867	-3140.75415	NaN	NaN	NaN	NaN	NaN	NaN
